<mxfile host="app.diagrams.net" modified="2022-03-22T05:15:29.834Z" agent="5.0 (Windows NT 10.0; Win64; x64) AppleWebKit/537.36 (KHTML, like Gecko) Chrome/99.0.4844.82 Safari/537.36" etag="vjM1Kup8QYhZTf_LuI4U" version="17.1.3" type="github">
  <diagram id="Niab_MxwBO8Usrzo0Dv_" name="Page-1">
    <mxGraphModel dx="836" dy="438" grid="1" gridSize="10" guides="1" tooltips="1" connect="1" arrows="1" fold="1" page="1" pageScale="1" pageWidth="827" pageHeight="1169" math="0" shadow="0">
      <root>
        <mxCell id="0" />
        <mxCell id="1" parent="0" />
        <mxCell id="W3riJsLocjhBonyXqWrv-14" style="edgeStyle=orthogonalEdgeStyle;rounded=0;orthogonalLoop=1;jettySize=auto;html=1;exitX=0.5;exitY=1;exitDx=0;exitDy=0;" edge="1" parent="1" source="W3riJsLocjhBonyXqWrv-1" target="W3riJsLocjhBonyXqWrv-2">
          <mxGeometry relative="1" as="geometry">
            <Array as="points">
              <mxPoint x="490" y="780" />
              <mxPoint x="160" y="780" />
            </Array>
          </mxGeometry>
        </mxCell>
        <mxCell id="W3riJsLocjhBonyXqWrv-1" value="App.js" style="rounded=1;whiteSpace=wrap;html=1;" vertex="1" parent="1">
          <mxGeometry x="430" y="730" width="120" height="30" as="geometry" />
        </mxCell>
        <mxCell id="W3riJsLocjhBonyXqWrv-2" value="Navbar" style="rounded=1;whiteSpace=wrap;html=1;" vertex="1" parent="1">
          <mxGeometry x="100" y="800" width="120" height="30" as="geometry" />
        </mxCell>
        <mxCell id="W3riJsLocjhBonyXqWrv-20" style="edgeStyle=orthogonalEdgeStyle;rounded=0;orthogonalLoop=1;jettySize=auto;html=1;exitX=0.5;exitY=1;exitDx=0;exitDy=0;entryX=0.5;entryY=0;entryDx=0;entryDy=0;" edge="1" parent="1" source="W3riJsLocjhBonyXqWrv-3" target="W3riJsLocjhBonyXqWrv-8">
          <mxGeometry relative="1" as="geometry" />
        </mxCell>
        <mxCell id="W3riJsLocjhBonyXqWrv-3" value="Products" style="rounded=1;whiteSpace=wrap;html=1;" vertex="1" parent="1">
          <mxGeometry x="230" y="800" width="120" height="30" as="geometry" />
        </mxCell>
        <mxCell id="W3riJsLocjhBonyXqWrv-21" style="edgeStyle=orthogonalEdgeStyle;rounded=0;orthogonalLoop=1;jettySize=auto;html=1;exitX=0.5;exitY=1;exitDx=0;exitDy=0;entryX=0.5;entryY=0;entryDx=0;entryDy=0;" edge="1" parent="1" source="W3riJsLocjhBonyXqWrv-4" target="W3riJsLocjhBonyXqWrv-9">
          <mxGeometry relative="1" as="geometry">
            <Array as="points">
              <mxPoint x="420" y="910" />
              <mxPoint x="355" y="910" />
            </Array>
          </mxGeometry>
        </mxCell>
        <mxCell id="W3riJsLocjhBonyXqWrv-22" style="edgeStyle=orthogonalEdgeStyle;rounded=0;orthogonalLoop=1;jettySize=auto;html=1;exitX=0.5;exitY=1;exitDx=0;exitDy=0;" edge="1" parent="1" source="W3riJsLocjhBonyXqWrv-4" target="W3riJsLocjhBonyXqWrv-10">
          <mxGeometry relative="1" as="geometry">
            <Array as="points">
              <mxPoint x="420" y="910" />
              <mxPoint x="485" y="910" />
            </Array>
          </mxGeometry>
        </mxCell>
        <mxCell id="W3riJsLocjhBonyXqWrv-4" value="CheckoutPage" style="rounded=1;whiteSpace=wrap;html=1;" vertex="1" parent="1">
          <mxGeometry x="360" y="800" width="120" height="30" as="geometry" />
        </mxCell>
        <mxCell id="W3riJsLocjhBonyXqWrv-23" style="edgeStyle=orthogonalEdgeStyle;rounded=0;orthogonalLoop=1;jettySize=auto;html=1;exitX=0.5;exitY=1;exitDx=0;exitDy=0;entryX=0.5;entryY=0;entryDx=0;entryDy=0;" edge="1" parent="1" source="W3riJsLocjhBonyXqWrv-5" target="W3riJsLocjhBonyXqWrv-11">
          <mxGeometry relative="1" as="geometry" />
        </mxCell>
        <mxCell id="W3riJsLocjhBonyXqWrv-24" style="edgeStyle=orthogonalEdgeStyle;rounded=0;orthogonalLoop=1;jettySize=auto;html=1;exitX=0.5;exitY=1;exitDx=0;exitDy=0;entryX=0.5;entryY=0;entryDx=0;entryDy=0;" edge="1" parent="1" source="W3riJsLocjhBonyXqWrv-5" target="W3riJsLocjhBonyXqWrv-12">
          <mxGeometry relative="1" as="geometry" />
        </mxCell>
        <mxCell id="W3riJsLocjhBonyXqWrv-25" style="edgeStyle=orthogonalEdgeStyle;rounded=0;orthogonalLoop=1;jettySize=auto;html=1;exitX=0.5;exitY=1;exitDx=0;exitDy=0;entryX=0.5;entryY=0;entryDx=0;entryDy=0;" edge="1" parent="1" source="W3riJsLocjhBonyXqWrv-5" target="W3riJsLocjhBonyXqWrv-13">
          <mxGeometry relative="1" as="geometry" />
        </mxCell>
        <mxCell id="W3riJsLocjhBonyXqWrv-5" value="Chekout" style="rounded=1;whiteSpace=wrap;html=1;" vertex="1" parent="1">
          <mxGeometry x="490" y="800" width="120" height="30" as="geometry" />
        </mxCell>
        <mxCell id="W3riJsLocjhBonyXqWrv-6" value="SingIn" style="rounded=1;whiteSpace=wrap;html=1;" vertex="1" parent="1">
          <mxGeometry x="620" y="800" width="120" height="30" as="geometry" />
        </mxCell>
        <mxCell id="W3riJsLocjhBonyXqWrv-7" value="SingOut" style="rounded=1;whiteSpace=wrap;html=1;" vertex="1" parent="1">
          <mxGeometry x="750" y="800" width="120" height="30" as="geometry" />
        </mxCell>
        <mxCell id="W3riJsLocjhBonyXqWrv-8" value="Product" style="rounded=1;whiteSpace=wrap;html=1;" vertex="1" parent="1">
          <mxGeometry x="230" y="870" width="120" height="30" as="geometry" />
        </mxCell>
        <mxCell id="W3riJsLocjhBonyXqWrv-9" value="Checkout Card" style="rounded=1;whiteSpace=wrap;html=1;" vertex="1" parent="1">
          <mxGeometry x="295" y="930" width="120" height="30" as="geometry" />
        </mxCell>
        <mxCell id="W3riJsLocjhBonyXqWrv-10" value="Total" style="rounded=1;whiteSpace=wrap;html=1;" vertex="1" parent="1">
          <mxGeometry x="425" y="930" width="120" height="30" as="geometry" />
        </mxCell>
        <mxCell id="W3riJsLocjhBonyXqWrv-11" value="PaymentForm" style="rounded=1;whiteSpace=wrap;html=1;" vertex="1" parent="1">
          <mxGeometry x="430" y="870" width="120" height="30" as="geometry" />
        </mxCell>
        <mxCell id="W3riJsLocjhBonyXqWrv-12" value="AddressForm" style="rounded=1;whiteSpace=wrap;html=1;" vertex="1" parent="1">
          <mxGeometry x="560" y="870" width="120" height="30" as="geometry" />
        </mxCell>
        <mxCell id="W3riJsLocjhBonyXqWrv-13" value="Review" style="rounded=1;whiteSpace=wrap;html=1;" vertex="1" parent="1">
          <mxGeometry x="686" y="870" width="120" height="30" as="geometry" />
        </mxCell>
        <mxCell id="W3riJsLocjhBonyXqWrv-15" style="edgeStyle=orthogonalEdgeStyle;rounded=0;orthogonalLoop=1;jettySize=auto;html=1;exitX=0.5;exitY=1;exitDx=0;exitDy=0;entryX=0.5;entryY=0;entryDx=0;entryDy=0;" edge="1" parent="1" source="W3riJsLocjhBonyXqWrv-1" target="W3riJsLocjhBonyXqWrv-3">
          <mxGeometry relative="1" as="geometry">
            <mxPoint x="500" y="770" as="sourcePoint" />
            <mxPoint x="170" y="810" as="targetPoint" />
            <Array as="points">
              <mxPoint x="490" y="780" />
              <mxPoint x="290" y="780" />
            </Array>
          </mxGeometry>
        </mxCell>
        <mxCell id="W3riJsLocjhBonyXqWrv-16" style="edgeStyle=orthogonalEdgeStyle;rounded=0;orthogonalLoop=1;jettySize=auto;html=1;exitX=0.5;exitY=1;exitDx=0;exitDy=0;" edge="1" parent="1" source="W3riJsLocjhBonyXqWrv-1" target="W3riJsLocjhBonyXqWrv-4">
          <mxGeometry relative="1" as="geometry">
            <mxPoint x="510" y="780" as="sourcePoint" />
            <mxPoint x="180" y="820" as="targetPoint" />
            <Array as="points">
              <mxPoint x="490" y="780" />
              <mxPoint x="420" y="780" />
            </Array>
          </mxGeometry>
        </mxCell>
        <mxCell id="W3riJsLocjhBonyXqWrv-17" style="edgeStyle=orthogonalEdgeStyle;rounded=0;orthogonalLoop=1;jettySize=auto;html=1;exitX=0.5;exitY=1;exitDx=0;exitDy=0;entryX=0.5;entryY=0;entryDx=0;entryDy=0;" edge="1" parent="1" source="W3riJsLocjhBonyXqWrv-1" target="W3riJsLocjhBonyXqWrv-5">
          <mxGeometry relative="1" as="geometry">
            <mxPoint x="520" y="790" as="sourcePoint" />
            <mxPoint x="190" y="830" as="targetPoint" />
            <Array as="points">
              <mxPoint x="490" y="780" />
              <mxPoint x="550" y="780" />
            </Array>
          </mxGeometry>
        </mxCell>
        <mxCell id="W3riJsLocjhBonyXqWrv-18" style="edgeStyle=orthogonalEdgeStyle;rounded=0;orthogonalLoop=1;jettySize=auto;html=1;exitX=0.5;exitY=1;exitDx=0;exitDy=0;entryX=0.5;entryY=0;entryDx=0;entryDy=0;" edge="1" parent="1" source="W3riJsLocjhBonyXqWrv-1" target="W3riJsLocjhBonyXqWrv-6">
          <mxGeometry relative="1" as="geometry">
            <mxPoint x="530" y="800" as="sourcePoint" />
            <mxPoint x="200" y="840" as="targetPoint" />
            <Array as="points">
              <mxPoint x="490" y="780" />
              <mxPoint x="680" y="780" />
            </Array>
          </mxGeometry>
        </mxCell>
        <mxCell id="W3riJsLocjhBonyXqWrv-19" style="edgeStyle=orthogonalEdgeStyle;rounded=0;orthogonalLoop=1;jettySize=auto;html=1;exitX=0.5;exitY=1;exitDx=0;exitDy=0;entryX=0.5;entryY=0;entryDx=0;entryDy=0;" edge="1" parent="1" source="W3riJsLocjhBonyXqWrv-1" target="W3riJsLocjhBonyXqWrv-7">
          <mxGeometry relative="1" as="geometry">
            <mxPoint x="540" y="810" as="sourcePoint" />
            <mxPoint x="210" y="850" as="targetPoint" />
            <Array as="points">
              <mxPoint x="490" y="780" />
              <mxPoint x="810" y="780" />
            </Array>
          </mxGeometry>
        </mxCell>
      </root>
    </mxGraphModel>
  </diagram>
</mxfile>
